<svg xmlns="http://www.w3.org/2000/svg" viewBox="0 0 24 24" fill="currentColor" class="shrink-0 block text-[#9fbed0] overflow-hidden transition-colors duration-150 !h-[24px] !w-[24px] group-hover:text-white"><path fill="currentColor" d="M12 9.745a2.255 2.255 0 1 1 0 4.51 2.255 2.255 0 0 1 0-4.51"></path><path fill="currentColor" fill-rule="evenodd" d="M12 5.372a6.628 6.628 0 1 1 0 13.256 6.628 6.628 0 0 1 0-13.256m0 2.118A4.52 4.52 0 0 0 7.49 12 4.51 4.51 0 1 0 12 7.49" clip-rule="evenodd"></path><path fill="currentColor" fill-rule="evenodd" d="M12 1c6.075 0 11 4.925 11 11s-4.925 11-11 11S1 18.075 1 12 5.925 1 12 1m0 2.117A8.893 8.893 0 0 0 3.116 12 8.883 8.883 0 0 0 12 20.883a8.883 8.883 0 1 0 0-17.766" clip-rule="evenodd"></path></svg>