<svg xmlns="http://www.w3.org/2000/svg" viewBox="0 0 24 24" class="shrink-0 block text-[#9fbed0] overflow-hidden transition-colors duration-150 !h-[24px] !w-[24px] group-hover:text-white" fill="currentColor"><path fill="currentColor" fill-rule="evenodd" d="M19 16.72v-1l-6-4-2.44 3.05c-.8 1-2.32 1-3.12 0L5 11.72l-1 1 2 4 5.59 4.79c.79.68 1.98.63 2.72-.1l.69-.69v-1h1l2-2v-1z" clip-rule="evenodd"></path><path fill="currentColor" fill-rule="evenodd" d="m19 13.72-4.71-7.53a1 1 0 0 0-.85-.47h-2.91c-.33 0-.65.17-.83.45l-3.25 4.87c-.26.4-.21.92.12 1.26l1.63 1.63c.42.42 1.12.38 1.49-.08l3.3-4.13 6 4zm-5-10 7 9 3-2-7-9zm-4 0-3-2-7 9 3 2z" clip-rule="evenodd"></path></svg>