<?xml version="1.0" encoding="UTF-8"?>
<svg version="1.1" xmlns="http://www.w3.org/2000/svg" width="2828" height="2828">
<path d="M0 0 C23.07184897 -0.04692368 46.14368996 -0.08208793 69.21557713 -0.10362434 C79.93059964 -0.1138942 90.64559234 -0.12787145 101.3605957 -0.15087891 C110.71040826 -0.17094526 120.0601992 -0.18374753 129.41003269 -0.18817699 C134.35102992 -0.19076217 139.29196535 -0.19674658 144.23294258 -0.21146011 C236.38252757 -0.47482212 236.38252757 -0.47482212 269 31 C285.24820358 48.36327637 293.4852136 68.60216534 293.25 92.3125 C293.24250732 93.31941895 293.23501465 94.32633789 293.22729492 95.36376953 C292.86596743 120.48713241 285.21541929 144.59324818 269 164 C268.37609375 164.79792969 267.7521875 165.59585937 267.109375 166.41796875 C259.10807628 176.18425984 248.51837406 182.21189459 237 187 C235.66082728 187.65485773 234.32528054 188.31746522 233 189 C233.680625 189.12375 234.36125 189.2475 235.0625 189.375 C255.23912778 193.66789953 272.4288082 205.97223955 284 223 C300.85069795 249.46038713 303.50936337 281.2923326 297.0703125 311.546875 C291.66086254 334.91052371 280.80629321 356.01159906 265 374 C264.28199219 374.83917969 263.56398438 375.67835938 262.82421875 376.54296875 C233.68193668 409.92977503 189.73402089 428.62307613 146 432 C138.36228582 432.34017315 130.7135483 432.25396552 123.0703125 432.22705078 C120.80197149 432.2264855 118.53363011 432.2268055 116.26528931 432.22793579 C110.15482873 432.22850576 104.0444479 432.21680949 97.93400574 432.20278788 C91.53055229 432.19022076 85.12709669 432.18910532 78.72363281 432.18673706 C67.99119439 432.18124233 57.25879054 432.16878003 46.52636719 432.15087891 C35.48014468 432.13247373 24.43393009 432.11834003 13.38769531 432.10986328 C12.70488991 432.10933783 12.0220845 432.10881239 11.31858802 432.10827102 C7.89258183 432.10566063 4.46657559 432.10313329 1.04056931 432.10064721 C-27.30630704 432.07997023 -55.65315196 432.04464327 -84 432 C-81.79526154 419.14999526 -79.54986057 406.31606616 -77.03344727 393.52294922 C-76.76086948 392.12769471 -76.48850786 390.73239796 -76.21633816 389.33706379 C-75.63735041 386.37111279 -75.05691534 383.4054505 -74.47525024 380.44002342 C-73.53786185 375.66095682 -72.60395603 370.88121312 -71.67041016 366.10139465 C-70.33133288 359.24689187 -68.99079156 352.39267696 -67.64920044 345.53866577 C-64.30147111 328.4347333 -60.96210652 311.32916627 -57.62311244 294.22352672 C-57.0930192 291.50797502 -56.56284293 288.79243955 -56.03265572 286.0769062 C-49.82686928 254.28981503 -43.67444643 222.49277951 -37.5625 190.6875 C-35.91062387 182.09366007 -34.25832736 173.49990102 -32.60546875 164.90625 C-32.41014746 163.8906431 -32.21482616 162.8750362 -32.01358604 161.82865334 C-25.84605195 129.76581947 -19.58379703 97.72145066 -13.30763435 65.67973137 C-12.15210924 59.77934111 -10.9993274 53.87841762 -9.8473587 47.97733212 C-8.66227652 41.90689809 -7.47520699 35.83685478 -6.28717041 29.76699829 C-5.81027319 27.32911078 -5.33397912 24.89110519 -4.8583374 22.45297241 C-4.2212397 19.18832899 -3.58168388 15.92417725 -2.94140625 12.66015625 C-2.66456245 11.23719742 -2.66456245 11.23719742 -2.38212585 9.78549194 C-2.12831902 8.49573959 -2.12831902 8.49573959 -1.86938477 7.17993164 C-1.72445084 6.43908829 -1.57951691 5.69824493 -1.43019104 4.93495178 C-1 3 -1 3 0 0 Z M118 116 C116.14881863 121.07762895 115.07181512 126.15907895 114.0546875 131.44921875 C113.87994904 132.34365189 113.70521057 133.23808502 113.525177 134.15962219 C113.15857782 136.04101807 112.79393855 137.92279679 112.43115234 139.80493164 C111.87464377 142.68934635 111.31083179 145.57226463 110.74609375 148.45507812 C110.39019159 150.28637416 110.03470822 152.11775164 109.6796875 153.94921875 C109.51097137 154.81173752 109.34225525 155.67425629 109.16842651 156.56291199 C109.01471588 157.36417007 108.86100525 158.16542816 108.70263672 158.9909668 C108.56654999 159.69456833 108.43046326 160.39816986 108.29025269 161.12309265 C107.92358625 163.17759016 107.92358625 163.17759016 108 166 C135.53683486 167.51349336 135.53683486 167.51349336 159.83984375 156.3671875 C165.47291613 150.22452177 167.60895255 143.94175475 167.34765625 135.6484375 C166.59732602 129.93243869 163.54943223 125.65762174 158.9609375 122.12890625 C149.10058023 116.45232607 138.07355932 115.82693451 127 115.9375 C126.12988281 115.94201172 125.25976562 115.94652344 124.36328125 115.95117188 C122.24215707 115.9628264 120.1210689 115.98075643 118 116 Z M92 247 C87.67348931 267.27368607 83.80578053 287.62331987 80 308 C86.02821218 308.07487747 92.05614596 308.12894187 98.0847168 308.16479492 C100.13001225 308.17976168 102.17527628 308.20014239 104.22045898 308.22631836 C121.66016256 308.4437285 138.35137344 308.25923235 151.9375 295.625 C158.03771744 289.02740272 160.4039285 281.58299511 160.2734375 272.72265625 C159.53680553 265.38790652 156.41663001 259.41842915 151 254.46875 C145.2599 250.25336406 138.60240642 247.93740473 131.50683594 247.79467773 C130.62622498 247.77473251 129.74561401 247.75478729 128.83831787 247.73423767 C127.89651672 247.71752518 126.95471558 247.70081268 125.984375 247.68359375 C124.52792572 247.6524221 124.52792572 247.6524221 123.04205322 247.62062073 C119.94477315 247.55531138 116.84740932 247.49632677 113.75 247.4375 C111.64842889 247.39429708 109.5468662 247.35068222 107.4453125 247.30664062 C102.29696052 247.19964902 97.14852442 247.0983291 92 247 Z " fill="#FFFFFF" transform="translate(1566,1198)"/>
<path d="M0 0 C95.04 0 190.08 0 288 0 C286.87496542 10.12531126 286.87496542 10.12531126 286.01330566 14.54856873 C285.81985062 15.55092056 285.62639557 16.5532724 285.42707825 17.58599854 C285.11222725 19.1878299 285.11222725 19.1878299 284.79101562 20.82202148 C284.56814377 21.97104446 284.34527191 23.12006744 284.11564636 24.3039093 C283.38278228 28.0770151 282.64467332 31.84907232 281.90625 35.62109375 C281.39417646 38.24898351 280.88233147 40.87691693 280.37072754 43.50489807 C279.3006558 48.99847771 278.22763324 54.4914747 277.15283203 59.98413086 C275.9099643 66.33586817 274.67182128 72.68851279 273.43616152 79.04165596 C272.2455303 85.16270657 271.05158853 91.2831069 269.85612488 97.40321541 C269.34813238 100.00548231 268.84098018 102.6079134 268.33467102 105.21050835 C267.62897455 108.83548632 266.91951034 112.45970625 266.20898438 116.08374023 C265.89413338 117.70682602 265.89413338 117.70682602 265.57292175 119.36270142 C265.37946671 120.34531448 265.18601166 121.32792755 264.98669434 122.34031677 C264.81930504 123.1969564 264.65191574 124.05359602 264.47945404 124.93619442 C264 127 264 127 263 129 C192.71 129.495 192.71 129.495 121 130 C118.69 141.22 116.38 152.44 114 164 C149.97 164 185.94 164 223 164 C217.20221847 196.46757659 217.20221847 196.46757659 214.265625 211.54296875 C213.93879059 213.22689938 213.61203059 214.91084445 213.28533936 216.59480286 C212.61472781 220.04860053 211.94246128 223.50207081 211.26904297 226.95532227 C210.4052722 231.38605597 209.54718071 235.81787072 208.69034195 240.24994946 C208.02387676 243.69295151 207.35391446 247.13526593 206.68291473 250.57738686 C206.3643048 252.21468507 206.04693737 253.85222557 205.73084259 255.49001122 C205.29459969 257.74822311 204.85352036 260.00543622 204.41113281 262.26245117 C204.16196106 263.54367355 203.91278931 264.82489594 203.65606689 266.14494324 C203 269 203 269 202 270 C200.58321089 270.09550698 199.16168759 270.12188483 197.74168396 270.12025452 C196.36390778 270.12231651 196.36390778 270.12231651 194.95829773 270.12442017 C193.94266251 270.12082489 192.92702728 270.11722961 191.88061523 270.11352539 C190.81733002 270.11367142 189.7540448 270.11381744 188.65853882 270.1139679 C185.12520342 270.11326825 181.59192 270.10547343 178.05859375 270.09765625 C175.61621632 270.09579225 173.17383851 270.09436827 170.73146057 270.09336853 C164.28865536 270.08954189 157.84587252 270.07971037 151.40307617 270.06866455 C144.83447574 270.05845356 138.2658717 270.05387158 131.69726562 270.04882812 C118.79816723 270.03808823 105.89908547 270.02101007 93 270 C92.67 272.97 92.34 275.94 92 279 C89.525 290.88 89.525 290.88 87 303 C133.86 303 180.72 303 229 303 C227.87496372 314.25036284 227.87496372 314.25036284 227.01330566 318.67555237 C226.81985062 319.68072403 226.62639557 320.68589569 226.42707825 321.7215271 C226.11222725 323.32032211 226.11222725 323.32032211 225.79101562 324.95141602 C225.56814377 326.10219131 225.34527191 327.25296661 225.11564636 328.43861389 C224.38371773 332.21127649 223.64519467 335.98261212 222.90625 339.75390625 C222.39412152 342.38275189 221.88227718 345.01165154 221.37072754 347.64060974 C220.30132962 353.13254225 219.2281986 358.62373526 218.15283203 364.11450195 C216.90881904 370.46662784 215.67090776 376.81992029 214.43616152 383.17385346 C213.24638006 389.29561025 212.0522415 395.41650931 210.85612488 401.53703117 C210.34785116 404.14006975 209.84069989 406.74332776 209.33467102 409.34680367 C208.62987822 412.96966375 207.92013273 416.59151768 207.20898438 420.21313477 C206.89413338 421.8392569 206.89413338 421.8392569 206.57292175 423.49822998 C206.37946671 424.47802322 206.18601166 425.45781647 205.98669434 426.46730042 C205.81930504 427.32356301 205.65191574 428.17982561 205.47945404 429.06203556 C205 431 205 431 204 432 C202.46222085 432.09690672 200.91997882 432.12371688 199.37914944 432.12304783 C198.37394046 432.12503888 197.36873149 432.12702993 196.33306164 432.12908131 C195.21538137 432.12616847 194.0977011 432.12325563 192.94615173 432.12025452 C191.18077548 432.12153615 191.18077548 432.12153615 189.37973505 432.12284368 C186.09831915 432.12421186 182.81696215 432.12106442 179.53555334 432.11606562 C176.00247722 432.1117644 172.46940307 432.11320731 168.93632507 432.1139679 C162.81016034 432.11449334 156.68400622 432.11134441 150.55784416 432.10573006 C141.70034167 432.09761782 132.84284433 432.09500012 123.98533852 432.09374207 C109.61611795 432.09155111 95.24690304 432.08488985 80.87768555 432.07543945 C66.91577177 432.06626646 52.95385954 432.05918508 38.99194336 432.05493164 C38.13195136 432.05466892 37.27195935 432.05440619 36.38590699 432.05413551 C32.07176511 432.05283051 27.75762322 432.05156679 23.44348133 432.05032361 C-12.37101645 432.03994964 -48.18550778 432.02233014 -84 432 C-81.92820652 418.28531245 -81.92820652 418.28531245 -80.78448486 412.44345093 C-80.56432363 411.3121022 -80.34416239 410.18075348 -80.1173296 409.01512146 C-79.88170653 407.81823196 -79.64608347 406.62134247 -79.40332031 405.38818359 C-79.14540378 404.06793069 -78.88772214 402.74763188 -78.63025188 401.42729187 C-78.0751793 398.58344553 -77.51848273 395.73992382 -76.96049309 392.89664841 C-76.05392192 388.27704055 -75.15109871 383.65670447 -74.24867249 379.0362854 C-72.93903542 372.33282052 -71.62774236 365.62968147 -70.31533813 358.92675781 C-66.96761686 341.82781868 -63.6294804 324.72700616 -60.29088807 307.62628269 C-59.7435584 304.82295184 -59.19613356 302.01963958 -58.64868736 299.21633148 C-51.30123283 261.59063728 -44.00488613 223.95514065 -36.72715443 186.31590551 C-35.16219003 178.22224627 -33.59646707 170.12873383 -32.03070509 162.03522885 C-29.48256412 148.86358351 -26.93488728 135.69184842 -24.38769531 122.52001953 C-24.17416048 121.41580868 -24.17416048 121.41580868 -23.95631182 120.28929055 C-22.42505719 112.37088936 -20.89406899 104.45243676 -19.36364746 96.53387451 C-19.23075441 95.84627544 -19.09786137 95.15867637 -18.96094126 94.45024097 C-18.82890899 93.76709516 -18.69687672 93.08394935 -18.56084347 92.38010216 C-16.09993774 79.64721179 -13.63746952 66.91462584 -11.1711874 54.1827755 C-9.8717074 47.47392698 -8.57467894 40.76461149 -7.27970123 34.05489254 C-6.50652551 30.05205066 -5.73093212 26.04968038 -4.95456314 22.04745674 C-4.60100741 20.22226187 -4.24846131 18.3968711 -3.89699936 16.5712719 C-3.42515947 14.12112001 -2.94976077 11.67168618 -2.47338867 9.22241211 C-2.26883796 8.15316498 -2.26883796 8.15316498 -2.06015491 7.06231689 C-1.1141602 2.22832041 -1.1141602 2.22832041 0 0 Z " fill="#FFFFFF" transform="translate(1971,1198)"/>
<path d="M0 0 C21.52451325 -0.04693088 43.04901794 -0.08209139 64.57357216 -0.10362434 C74.5700617 -0.1138927 84.56651927 -0.127867 94.56298828 -0.15087891 C103.28616465 -0.17094994 112.00931783 -0.18374861 120.73251665 -0.18817699 C125.34204824 -0.1907614 129.95151357 -0.19674066 134.56102371 -0.21146011 C182.73537013 -0.35927622 182.73537013 -0.35927622 201.1875 4.1875 C202.083479 4.40108154 202.97945801 4.61466309 203.90258789 4.8347168 C238.93635195 13.54760125 269.81119634 33.74811742 288.79052734 64.89501953 C309.97031601 101.75657341 310.14580999 146.53162733 299.7578125 186.74609375 C293.64901557 209.16682477 283.58792749 229.89631266 269 248 C268.51241211 248.60714844 268.02482422 249.21429687 267.52246094 249.83984375 C234.07007788 291.07235759 182.96510889 311.70933094 131.15625 317.41821289 C115.43543749 319.01508921 99.79324264 319.12243261 84 319 C83.85855309 320.01814285 83.85855309 320.01814285 83.71424866 321.05685425 C82.08177787 332.23772959 79.86366076 343.29843835 77.68359375 354.3828125 C77.26269057 356.53177569 76.84196295 358.68077328 76.42140198 360.82980347 C75.54473046 365.30646144 74.66624108 369.78275752 73.78637695 374.25878906 C72.65784714 380.00039426 71.53347617 385.7428045 70.41038418 391.48547554 C69.54457792 395.9105836 68.6768283 400.33530878 67.80845833 404.7599144 C67.39285524 406.87855152 66.97780717 408.99729759 66.56332207 411.11615372 C65.98613505 414.06496366 65.40639078 417.01325922 64.82592773 419.96142578 C64.65500107 420.83723801 64.4840744 421.71305023 64.30796814 422.61540222 C64.14961487 423.41691208 63.9912616 424.21842194 63.82810974 425.04421997 C63.69151664 425.73988131 63.55492353 426.43554264 63.41419125 427.15228462 C63 429 63 429 62 432 C13.82 432 -34.36 432 -84 432 C-78.20962522 400.73197616 -78.20962522 400.73197616 -75.48757935 386.65249634 C-75.18867483 385.10550993 -75.18867483 385.10550993 -74.88373184 383.52727127 C-74.67846752 382.46510769 -74.4732032 381.40294411 -74.26171875 380.30859375 C-73.82015179 378.01981925 -73.37865602 375.73103101 -72.93722534 373.44223022 C-71.76545028 367.36840202 -70.5922668 361.29484678 -69.41862869 355.22137833 C-68.67676829 351.3819592 -67.93524998 347.54247413 -67.19381714 343.70297241 C-59.93743193 306.12818579 -52.64275746 268.56111146 -45.29990768 231.0031395 C-39.59758391 201.83605745 -33.90818912 172.66645003 -28.21922207 143.49676037 C-26.4839882 134.59959835 -24.7484412 125.70249769 -23.01199341 116.80557251 C-21.19926431 107.51772973 -19.38726017 98.22974577 -17.5760715 88.94160247 C-17.2577745 87.30937026 -16.93944657 85.67714409 -16.62108731 84.04492402 C-13.42196385 67.64293121 -10.22711148 51.24029642 -7.09326172 34.82568359 C-6.8764635 33.69025084 -6.65966528 32.5548181 -6.43629742 31.38497829 C-5.46046126 26.26945549 -4.4879045 21.15333743 -3.52052307 16.03620911 C-3.35276682 15.1528142 -3.18501057 14.26941929 -3.01217079 13.35925484 C-2.70672719 11.75072805 -2.40289408 10.14189416 -2.10107994 8.53268242 C-1.54451875 5.6074348 -0.94308626 2.82925879 0 0 Z M121 126 C119.43098816 134.01385833 117.86601471 142.02849019 116.30618286 150.04413986 C115.58175545 153.76614537 114.85594286 157.48786953 114.12695312 161.20898438 C113.42342033 164.80042562 112.72354131 168.39256132 112.02618408 171.9852066 C111.75956073 173.35537297 111.49162442 174.72528452 111.22235107 176.09493256 C110.84527434 178.01410519 110.47330703 179.93427958 110.1015625 181.85449219 C109.88838379 182.94703308 109.67520508 184.03957397 109.45556641 185.16522217 C108.89421978 188.17969597 108.89421978 188.17969597 109 192 C127.20894939 193.50228437 144.38774124 193.86588122 159.3125 181.6875 C167.10690989 174.38024073 170.86494576 165.16859408 171.4375 154.5 C171.12867924 147.31991739 168.70592811 140.37699053 163.8125 135.0625 C153.88227274 126.32390001 140.86956134 125.93506883 128.22314453 125.98144531 C127.52770035 125.98278473 126.83225616 125.98412415 126.11573792 125.98550415 C124.41048864 125.98898182 122.70524331 125.9943057 121 126 Z " fill="#FFFFFF" transform="translate(1182,1198)"/>
<path d="M0 0 C95.04 0 190.08 0 288 0 C286.87498201 11.25017994 286.87498201 11.25017994 286.01330566 15.62413025 C285.81985062 16.61799744 285.62639557 17.61186462 285.42707825 18.635849 C285.11222725 20.21590477 285.11222725 20.21590477 284.79101562 21.82788086 C284.56814377 22.96569 284.34527191 24.10349915 284.11564636 25.27578735 C283.38369232 29.00637609 282.64510281 32.73561574 281.90625 36.46484375 C281.3940594 39.06646532 280.88219722 41.66814953 280.37072754 44.26991272 C279.30124195 49.7063635 278.22822344 55.14210711 277.15283203 60.57739258 C275.90996561 66.85925413 274.67173157 73.14201438 273.43616152 79.42531484 C272.24478724 85.48375219 271.05108641 91.54172788 269.85612488 97.59945869 C269.34852925 100.17306469 268.8413768 102.74675813 268.33467102 105.32053947 C267.62812684 108.90672229 266.91896008 112.49237605 266.20898438 116.07788086 C265.99908371 117.14542099 265.78918304 118.21296112 265.57292175 119.31285095 C265.37946671 120.28697937 265.18601166 121.26110779 264.98669434 122.26475525 C264.81930504 123.11179992 264.65191574 123.95884459 264.47945404 124.83155727 C264 127 264 127 263 130 C215.81 130 168.62 130 120 130 C119.67 132.97 119.34 135.94 119 139 C118.74751368 140.58870441 118.47569364 142.17472688 118.16796875 143.75366211 C117.93267456 144.97423561 117.93267456 144.97423561 117.69262695 146.21946716 C117.44258911 147.48561607 117.44258911 147.48561607 117.1875 148.77734375 C117.01371826 149.66990372 116.83993652 150.56246368 116.66088867 151.48207092 C116.29620039 153.35045356 115.9297236 155.21848792 115.56152344 157.08618164 C114.99695056 159.95298452 114.43950618 162.82111095 113.8828125 165.68945312 C113.526462 167.51049897 113.16970583 169.33146549 112.8125 171.15234375 C112.56246216 172.43974709 112.56246216 172.43974709 112.30737305 173.75315857 C111.11525991 179.76948018 111.11525991 179.76948018 110 182 C145.97 182 181.94 182 219 182 C218.33377756 188.66222439 217.54904839 195.0069248 216.25 201.53295898 C216.075896 202.42692886 215.90179199 203.32089874 215.72241211 204.24195862 C215.15274057 207.16089815 214.57651452 210.07849875 214 212.99609375 C213.59991462 215.03720947 213.20018064 217.0783941 212.80078125 219.11964417 C211.96637673 223.37907212 211.12892899 227.63788596 210.2890625 231.89624023 C209.21182593 237.35853662 208.14042428 242.82195671 207.07104492 248.28579617 C206.24743569 252.49219509 205.42169902 256.69817396 204.59521484 260.90400887 C204.19925672 262.91939667 203.80374695 264.93487262 203.40869141 266.95043755 C202.85782193 269.75829653 202.3043148 272.56562216 201.75 275.37280273 C201.58685303 276.2065744 201.42370605 277.04034607 201.25561523 277.89938354 C200.64025403 281.00404704 200.00205369 283.99383894 199 287 C163.03 287.33 127.06 287.66 90 288 C87.99035156 298.45558594 85.98070312 308.91117188 83.91015625 319.68359375 C82.63909906 326.28719202 81.36784641 332.89075165 80.09570312 339.49414062 C78.07430097 349.98694932 76.05372329 360.4799122 74.03833008 370.97387695 C72.57079236 378.61518937 71.10054859 386.25597518 69.62701124 393.89613301 C68.84641001 397.94399408 68.06719463 401.99211115 67.2912159 406.04086113 C66.56160484 409.84745202 65.82839252 413.65333102 65.0923481 417.45868301 C64.82210472 418.85931233 64.55320606 420.26020184 64.28571701 421.66135979 C63.92179489 423.56658668 63.55267314 425.47081824 63.1832428 427.37498474 C62.97768296 428.44334281 62.77212313 429.51170088 62.56033421 430.61243343 C62 433 62 433 61 434 C59.12705216 434.09652596 57.25041756 434.12187266 55.37498474 434.12025452 C53.54284424 434.12231651 53.54284424 434.12231651 51.6736908 434.12442017 C50.30776953 434.12088056 48.94184852 434.11724574 47.57592773 434.11352539 C46.14722699 434.11324352 44.7185261 434.11340124 43.28982544 434.1139679 C39.39950028 434.11425589 35.50920569 434.10835887 31.61888766 434.10139394 C27.55761795 434.0951607 23.49634761 434.09455663 19.43507385 434.09336853 C11.73921067 434.09025512 4.04336162 434.08204161 -3.65249532 434.07201904 C-12.41172114 434.06085819 -21.17094761 434.05534753 -29.93017876 434.05032361 C-47.95346053 434.03985901 -65.97672913 434.02225939 -84 434 C-83.39421137 425.90433166 -81.96825158 418.05221374 -80.39331055 410.09521484 C-80.12231776 408.70856687 -79.85173422 407.32183886 -79.58152199 405.93503857 C-78.84385242 402.15519086 -78.10052717 398.37647487 -77.35625482 394.59792256 C-76.55718261 390.53567143 -75.7635336 386.47236071 -74.96928406 382.40916443 C-73.5988848 375.40215001 -72.22530389 368.39576567 -70.84954834 361.38980103 C-68.66722675 350.27601803 -66.4914763 339.16095394 -64.31689453 328.0456543 C-63.57753684 324.26676507 -62.83814891 320.48788176 -62.09875488 316.70899963 C-61.91495293 315.76959406 -61.73115098 314.83018848 -61.54177928 313.86231607 C-60.22934151 307.15485728 -58.91604434 300.44756709 -57.60241699 293.74034119 C-50.92788966 259.65874064 -44.2923996 225.56961894 -37.66993999 191.47786814 C-36.23643157 184.0986104 -34.8019538 176.7195412 -33.36733246 169.34049976 C-28.66162279 145.13646102 -23.95721727 120.93216971 -19.25754738 96.72695744 C-17.01487257 85.17633191 -14.77085897 73.62596717 -12.52560425 62.07584286 C-11.07228249 54.59914306 -9.62067572 47.12211319 -8.17044353 39.64481354 C-7.29418478 35.12907336 -6.4162788 30.61365466 -5.53787422 26.09833145 C-5.1339516 24.0202193 -4.73072213 21.94197228 -4.3282299 19.86358261 C-3.78356315 17.05151663 -3.23646228 14.2399352 -2.6887207 11.4284668 C-2.53051535 10.60847104 -2.37230999 9.78847528 -2.20931053 8.94363117 C-1.61191157 5.88827075 -0.98572646 2.95717939 0 0 Z " fill="#FFFFFF" transform="translate(290,1197)"/>
<path d="M0 0 C109.23 0 218.46 0 331 0 C329.875 12.375 329.875 12.375 329.00657654 16.80253601 C328.71422623 18.31452324 328.71422623 18.31452324 328.41596985 19.85705566 C328.20449814 20.92089478 327.99302643 21.98473389 327.77514648 23.08081055 C327.55066833 24.23333817 327.32619019 25.38586578 327.09490967 26.57331848 C326.358864 30.34549556 325.6150446 34.11609352 324.87109375 37.88671875 C324.35637461 40.51649329 323.84209166 43.14634941 323.3283844 45.77632141 C322.11808215 51.96754087 320.90217082 58.15764446 319.68418127 64.34735566 C318.16004007 72.09451111 316.64349632 79.84315117 315.12695312 87.59179688 C312.4252067 101.39595957 309.7120822 115.19785533 307 129 C275.98 129 244.96 129 213 129 C212.67 132.3 212.34 135.6 212 139 C211.60309676 141.43150073 211.17095277 143.85758538 210.6990509 146.27565002 C210.57081955 146.93937659 210.44258821 147.60310316 210.31047106 148.28694266 C209.88551889 150.48064926 209.45413566 152.67303761 209.02270508 154.86547852 C208.71263531 156.45898081 208.4029684 158.05256154 208.09366894 159.64621353 C207.251124 163.98129751 206.40295379 168.31526394 205.55380058 172.64905763 C204.64827018 177.27586432 203.74802356 181.90369912 202.84716797 186.53141785 C201.307101 194.43904059 199.76379036 202.34602436 198.21817017 210.25256348 C196.0138382 221.52876895 193.81450505 232.8059446 191.61658514 244.08340144 C188.42874988 260.43973851 185.2382182 276.79554757 182.04511607 293.15085721 C177.95046061 314.12400895 173.86251567 335.09845747 169.78125 356.07421875 C169.53533615 357.33809732 169.2894223 358.6019759 169.03605652 359.90415382 C168.32285249 363.56980764 167.60966837 367.23546533 166.89648438 370.90112305 C162.93337947 391.26788055 158.96633182 411.63387068 155 432 C106.82 432 58.64 432 9 432 C11.24996488 416.25024585 11.24996488 416.25024585 12.29385376 410.92477417 C12.53112183 409.70506802 12.76838989 408.48536186 13.0128479 407.22869492 C13.26722626 405.94005665 13.52160461 404.65141838 13.78369141 403.32373047 C14.06107872 401.90480592 14.33814762 400.4858191 14.6149292 399.06677628 C15.21017612 396.01861484 15.80764736 392.97090125 16.40690994 389.92352676 C17.37508188 385.00014978 18.33823349 380.07579793 19.3008728 375.15133667 C20.6852828 368.07195179 22.07203896 360.9930301 23.46044922 353.91442871 C25.63229505 342.8411394 27.79924513 331.7668954 29.96484375 320.69238281 C30.14512226 319.77047936 30.32540076 318.84857592 30.51114225 317.898736 C31.4246908 313.22694803 32.33816052 308.55514465 33.25157928 303.8833313 C33.98657535 300.12420233 34.72175611 296.36510955 35.45709991 292.60604858 C42.55204916 256.3366403 49.59520414 220.05734675 56.60909176 183.77218342 C57.13210054 181.06663883 57.65522931 178.36111745 58.17836463 175.65559733 C61.12091476 160.43745161 64.06088807 145.21881063 67 130 C21.46 129.505 21.46 129.505 -25 129 C-23.75434303 120.28040119 -22.46253653 111.69363522 -20.76928711 103.06933594 C-20.5560228 101.96835068 -20.34275848 100.86736542 -20.12303162 99.73301697 C-19.42792254 96.14945507 -18.72780842 92.56689357 -18.02734375 88.984375 C-17.53913202 86.47573054 -17.05114436 83.96704247 -16.56336975 81.45831299 C-15.54602969 76.23007024 -14.52631592 71.00229863 -13.50463867 65.77490234 C-12.32373441 59.73262665 -11.14749489 53.68945663 -9.97365373 47.64580512 C-8.8401439 41.81040243 -7.70331506 35.97565019 -6.56500435 30.14118195 C-6.08212377 27.66451527 -5.60009024 25.18768329 -5.11890984 22.71068573 C-4.4492412 19.26586746 -3.77580908 15.82180657 -3.10131836 12.37792969 C-2.80285004 10.83675728 -2.80285004 10.83675728 -2.49835205 9.26445007 C-2.31475632 8.33113358 -2.13116058 7.39781708 -1.94200134 6.43621826 C-1.78328521 5.62294445 -1.62456907 4.80967064 -1.46104336 3.97175217 C-1 2 -1 2 0 0 Z " fill="#FFFFFF" transform="translate(2296,1198)"/>
<path d="M0 0 C48.51 0 97.02 0 147 0 C145.67466796 9.27732425 144.24334199 18.40698332 142.43164062 27.58374023 C142.1800009 28.87360777 141.92836117 30.1634753 141.66909599 31.49242973 C141.1228921 34.29202039 140.57448483 37.09116672 140.02430344 39.88997841 C139.13205232 44.42906114 138.24491216 48.96913475 137.35830688 53.50932312 C136.07717623 60.06726082 134.79379431 66.6247543 133.5088501 73.1819458 C130.28308848 89.64439332 127.06971081 106.10926146 123.85600138 122.57406521 C123.33411051 125.24764065 122.81208737 127.92119023 122.29003525 130.59473419 C117.23830438 156.46743465 112.21574354 182.34563316 107.2265625 208.23046875 C107.0135365 209.33560456 107.0135365 209.33560456 106.79620695 210.46306634 C100.85133748 241.30624307 94.92938948 272.15385022 89 303 C135.2 303 181.4 303 229 303 C227.87495205 314.25047948 227.87495205 314.25047948 227.05799866 318.4967804 C226.87440292 319.4625148 226.69080719 320.42824921 226.50164795 321.42324829 C226.30266907 322.4454245 226.10369019 323.46760071 225.89868164 324.52075195 C225.68716965 325.6260878 225.47565765 326.73142365 225.25773621 327.87025452 C224.56305143 331.49381337 223.86186005 335.11607561 223.16015625 338.73828125 C222.67288411 341.2678713 222.18586302 343.79750972 221.69908142 346.32719421 C220.68066815 351.61396691 219.65906175 356.90010803 218.63500977 362.18579102 C217.45286991 368.28779317 216.27762763 374.39109458 215.10585123 380.4950946 C213.97468108 386.38635386 212.83791181 392.27651672 211.69882011 398.16625023 C211.21609665 400.66542971 210.73488274 403.16490125 210.25520515 405.66466713 C209.58517831 409.15280161 208.90879052 412.63964362 208.23071289 416.1262207 C208.03375824 417.15851807 207.83680359 418.19081543 207.63388062 419.25439453 C207.44746506 420.20602982 207.2610495 421.1576651 207.06898499 422.13813782 C206.90989182 422.96121587 206.75079866 423.78429392 206.5868845 424.63231373 C206 427 206 427 204 432 C108.96 432 13.92 432 -84 432 C-78.25747069 399.84183588 -78.25747069 399.84183588 -75.99926758 388.35205078 C-75.73453926 386.99597253 -75.47001425 385.63985458 -75.2056675 384.2837019 C-74.64561269 381.41275181 -74.08419216 378.54207397 -73.52157402 375.67162514 C-72.6104145 371.02291708 -71.70254072 366.37357029 -70.79493713 361.72416687 C-69.48488267 355.01479453 -68.17335682 348.30571136 -66.86077881 341.59683228 C-64.77986519 330.96046602 -62.70227364 320.32345229 -60.62548828 309.6862793 C-60.45082912 308.79169396 -60.27616997 307.89710862 -60.09621811 306.97541463 C-59.21033374 302.43794439 -58.32449958 297.90046435 -57.43869781 293.36297798 C-56.72536301 289.70901943 -56.01191378 286.05508325 -55.29836273 282.40116692 C-48.69819625 248.60330527 -42.12720091 214.79984253 -35.57325149 180.99299115 C-34.24858122 174.16010723 -32.92333573 167.32733493 -31.5980401 160.49457228 C-27.87573656 141.30352671 -24.1539713 122.11237664 -20.43389893 102.92089844 C-17.64267088 88.52138067 -14.85047892 74.1220515 -12.0551033 59.72333813 C-10.66430529 52.55914318 -9.27519511 45.39462399 -7.88744831 38.22983742 C-7.04777217 33.89692315 -6.2064303 29.56433365 -5.36457634 25.23184204 C-4.9769754 23.23532563 -4.59006556 21.2386749 -4.20388985 19.24188232 C-3.68065919 16.53695061 -3.15498329 13.83250562 -2.62866211 11.12817383 C-2.47667044 10.33924649 -2.32467876 9.55031916 -2.16808128 8.73748493 C-1.58435941 5.74944992 -0.96403597 2.89210792 0 0 Z " fill="#FFFFFF" transform="translate(626,1198)"/>
<path d="M0 0 C48.18 0 96.36 0 146 0 C143.75002273 14.62485225 143.75002273 14.62485225 142.65281677 20.25285339 C142.40333849 21.53920213 142.15386021 22.82555086 141.89682198 24.15087986 C141.62583979 25.53443329 141.35481091 26.91797758 141.08374023 28.30151367 C140.79125244 29.80450445 140.49899231 31.30753955 140.20693779 32.81061459 C139.41135266 36.90177043 138.61262993 40.99230813 137.81337762 45.08274889 C136.95149239 49.49684162 136.09263903 53.91152431 135.23344421 58.32614136 C133.74878117 65.95244653 132.26235411 73.57840608 130.77471924 81.20413208 C128.41797247 93.2852322 126.06485146 105.36703701 123.71240234 117.44897461 C122.90900662 121.57496839 122.10559641 125.70095934 121.30218506 129.82695007 C121.10192671 130.85541567 120.90166837 131.88388127 120.69534159 132.9435125 C119.26050332 140.31221181 117.82518988 147.68081847 116.38970947 155.0493927 C108.47345361 195.68651063 100.5815245 236.32833811 92.69509059 276.97125262 C91.16040585 284.88023212 89.6254323 292.78915555 88.09038067 300.69806385 C87.43529191 304.07322335 86.78024367 307.4483907 86.12523365 310.82356548 C84.70728471 318.12998812 83.28922739 325.43638952 81.87027723 332.74261779 C81.11292096 336.64234924 80.35573009 340.54211279 79.59863281 344.44189453 C79.37664264 345.58533701 79.37664264 345.58533701 79.15016782 346.75187933 C77.14350081 357.08957744 75.14397159 367.42863406 73.15007973 377.7688036 C72.07751396 383.33104097 71.00314479 388.89292956 69.92837369 394.45474118 C69.06579668 398.9195062 68.20580141 403.38475824 67.34778786 407.85040236 C66.95087934 409.91372378 66.55264097 411.97678299 66.15378189 414.03972816 C65.67001821 416.54184648 65.1884104 419.04438291 64.70931625 421.54739952 C64.49730701 422.64034639 64.28529778 423.73329327 64.06686401 424.85935974 C63.88376112 425.81009086 63.70065823 426.76082197 63.51200676 427.74036312 C63 430 63 430 62 432 C14.15 432 -33.7 432 -83 432 C-81.87499504 419.62494541 -81.87499504 419.62494541 -80.9561615 414.89637756 C-80.6449459 413.27350657 -80.6449459 413.27350657 -80.32744312 411.6178503 C-80.10071258 410.46529027 -79.87398203 409.31273024 -79.64038086 408.12524414 C-79.39833514 406.87171174 -79.15628942 405.61817934 -78.90690899 404.32666111 C-78.23999921 400.87366589 -77.56632576 397.42202117 -76.89144754 393.97057581 C-76.16200841 390.23378169 -75.43888495 386.4957648 -74.7149353 382.75790405 C-73.29358728 375.42463032 -71.86636417 368.09251168 -70.43721962 360.76075387 C-68.75488345 352.12869181 -67.07886832 343.49540577 -65.40292728 334.86210024 C-61.1257627 312.83123886 -56.83482157 290.80306644 -52.54100227 268.77544594 C-52.0034063 266.01747498 -51.46585962 263.25949441 -50.92832947 260.50151062 C-44.54638664 227.75698017 -38.16022219 195.0132732 -31.76444793 162.27144134 C-30.28554755 154.70051677 -28.80677558 147.12956711 -27.328125 139.55859375 C-27.16910784 138.74440043 -27.01009068 137.9302071 -26.84625483 137.09134126 C-22.48149 114.7421731 -18.12841616 92.39078879 -13.796875 70.03515625 C-13.4484533 68.23698865 -13.4484533 68.23698865 -13.09299278 66.40249443 C-10.98612593 55.52764888 -8.88132689 44.65240549 -6.7803936 33.77641201 C-6.06195403 30.05792613 -5.34278045 26.33958242 -4.62349701 22.62125969 C-4.14595661 20.15070987 -3.66964483 17.67992547 -3.19342041 15.2091217 C-2.91229325 13.75528793 -2.63110832 12.30146533 -2.34985352 10.84765625 C-2.11105972 9.61023682 -1.87226593 8.37281738 -1.62623596 7.09790039 C-1.14529479 4.7187527 -0.58869987 2.35479948 0 0 Z " fill="#FFFFFF" transform="translate(962,1198)"/>
</svg>
