<svg width="20" height="20" viewBox="0 0 24 24" xmlns="http://www.w3.org/2000/svg" fill="none" class="text-current"><path fill="currentColor" fill-rule="evenodd" d="M21 1H6c-1.05 0-1.9.81-1.98 1.83H4V19H1v2c0 1.1.9 2 2 2h15c1.1 0 2-.9 2-2V5h3V3c0-1.1-.9-2-2-2M3 22c-.55 0-1-.45-1-1v-1h10.92v1c0 .37.11.7.28 1zm9.58-6H8c-.55 0-1-.45-1-1s.45-1 1-1h4.58c.55 0 1 .45 1 1s-.45 1-1 1M17 12H7.83c-.55 0-1-.45-1-1s.45-1 1-1H17c.55 0 1 .45 1 1s-.45 1-1 1m0-4H7.83c-.55 0-1-.45-1-1s.45-1 1-1H17c.55 0 1 .45 1 1s-.45 1-1 1m5-4h-2V3c0-.55.45-1 1-1s1 .45 1 1z" clip-rule="evenodd"></path></svg>