<svg xmlns="http://www.w3.org/2000/svg" viewBox="0 0 24 24" fill="currentColor" class="shrink-0 block text-[#9fbed0] overflow-hidden transition-colors duration-150 !h-[24px] !w-[24px] group-hover:text-white"><path fill="currentColor" d="M12 9.19a1.25 1.25 0 0 1 1.23 1.24v.01a1.25 1.25 0 1 1-1.25-1.25z"></path><path fill="currentColor" fill-rule="evenodd" d="m16.551 5 2.45 2.45v9.101l-2.45 2.45h-9.1L5 16.551v-9.1L7.45 5zM12 7.42a3 3 0 0 0-3 2.94l.001-.009a2.59 2.59 0 0 0 2.57 2.8h.008c.436-.02.852-.114 1.212-.26-.27 1.33-1.98 1.92-2.59 2.11-.24.08-.29.22-.24.38l.37 1v.002a.3.3 0 0 0 .4.198l.042-.011a6 6 0 0 0 4.338-5.65c0-1.947-1.042-3.406-2.926-3.495z" clip-rule="evenodd"></path><path fill="currentColor" fill-rule="evenodd" d="M23 4.85v14.3L19.15 23H4.85L1 19.15V4.85L4.85 1h14.3zM3.49 6.52v11l3 3h11l3-3v-11l-3-3h-11z" clip-rule="evenodd"></path></svg>