<svg xmlns="http://www.w3.org/2000/svg" viewBox="0 0 24 24" fill="currentColor" class="shrink-0 block text-[#9fbed0] overflow-hidden transition-colors duration-150 !h-[24px] !w-[24px] group-hover:text-white"><path fill="currentColor" d="M9.936 3.547c4.935 0 8.935 4.13 8.935 9.227 0 5.096-4 9.226-8.935 9.226S1 17.87 1 12.774s4-9.227 8.936-9.227m5.527-1.127c.806-.784 2.033-.377 2.95.455a3.18 3.18 0 0 1 2.154-.72h.005c.848.03 1.614.39 2.184.962l.11.117c.084.09.134.212.134.346a.5.5 0 0 1-.151.364.46.46 0 0 1-.33.143h-.006a.47.47 0 0 1-.353-.162v-.001a2.25 2.25 0 0 0-1.679-.756 2.23 2.23 0 0 0-1.363.464c.725.993 1.008 2.234.21 3.01l-.54.491-.025-.045a10.7 10.7 0 0 0-4.09-3.892z"></path></svg>