<svg xmlns="http://www.w3.org/2000/svg" viewBox="0 0 24 24" fill="currentColor" class="shrink-0 block text-[#9fbed0] overflow-hidden transition-colors duration-150 !h-[24px] !w-[24px] group-hover:text-white"><path fill="currentColor" d="M11.712 5.633c.996 0 1.804.898 1.804 2.005s-.808 2.004-1.804 2.004c-.997 0-1.805-.897-1.805-2.004 0-1.108.809-2.005 1.805-2.005"></path><path fill="currentColor" fill-rule="evenodd" d="M11.712 1c3.308 0 5.992 2.966 6.016 6.638v-.001.019c0 1.904-.721 3.621-1.879 4.836L5.73 23V6.985l.002-.03C6.057 3.608 8.61 1 11.71 1m0 2.694c-1.957 0-3.543 1.76-3.543 3.934 0 2.173 1.586 3.935 3.543 3.935 1.953 0 3.537-1.757 3.542-3.926v-.01c0-2.172-1.586-3.933-3.542-3.933" clip-rule="evenodd"></path></svg>