<svg xmlns="http://www.w3.org/2000/svg" viewBox="0 0 24 24" fill="currentColor" class="shrink-0 block text-[#9fbed0] overflow-hidden transition-colors duration-150 !h-[24px] !w-[24px] group-hover:text-white"><path fill="currentColor" d="M7.62 10.61a20 20 0 0 0-1.45 3.96 7.5 7.5 0 0 0 0 3.59l.18.75-4.07 1A9.47 9.47 0 0 1 3 13.43l-3 .71v-2.92l7.34-1.76zM24 11.72l-.23 1.16a21.4 21.4 0 0 0-2.97 2.95 7.64 7.64 0 0 0-1.5 3.26l-.15.75-4.15-.76a9.53 9.53 0 0 1 3.34-5.57l-3-.59 1.26-2.66z"></path><path fill="currentColor" d="M18 6.03a33.5 33.5 0 0 0-3.8 5.74 12.44 12.44 0 0 0-1.4 5.7v1.25H8.08a13.9 13.9 0 0 1 1.25-5.69 21.7 21.7 0 0 1 3.37-5.28h-7V4.09H18z"></path></svg>