<svg xmlns="http://www.w3.org/2000/svg" viewBox="0 0 24 24" fill="none" class="w-5 h-5 mb-0.5"><path fill="currentColor" d="m2.14 4.63 7.25-3.38c.63-.3 1.34-.23 1.89.11-.09.14-.18.28-.26.43L4.81 15.1 1.17 7.29c-.47-1-.03-2.19.97-2.66"></path><path fill="currentColor" fill-rule="evenodd" d="m21.86 4.63-7.25-3.38c-1-.47-2.19-.03-2.66.97l-6.76 14.5c-.47 1-.03 2.19.97 2.66l7.25 3.38c1 .47 2.19.03 2.66-.97l6.76-14.5c.47-1 .03-2.19-.97-2.66m-9.54 11-.85-4.81 4.23-2.44.85 4.81z" clip-rule="evenodd"></path></svg>