<svg xmlns="http://www.w3.org/2000/svg" viewBox="0 0 24 24" fill="currentColor" class="shrink-0 block text-[#9fbed0] overflow-hidden transition-colors duration-150 !h-[24px] !w-[24px] group-hover:text-white"><path fill="currentColor" d="M9.24 5.634a.92.92 0 0 1 .817.5l.21.434-2.846 8.556-.031.133a.925.925 0 0 0 .61 1.02l7.779 2.61h.119l-.002.004a.87.87 0 0 1-.347.328l-7.342 3.686a.92.92 0 0 1-1.226-.412L1.084 10.615l.002.006a.926.926 0 0 1 .402-1.205l7.348-3.688-.006.002a.9.9 0 0 1 .41-.097"></path><path fill="currentColor" fill-rule="evenodd" d="M14.312 1c.1 0 .198.016.282.044l7.778 2.591.008.002a.923.923 0 0 1 .572 1.17l-4.189 12.586-.002.006a.92.92 0 0 1-1.145.565l-7.78-2.609-.006-.002a.92.92 0 0 1-.573-1.15l4.189-12.586.002-.007a.92.92 0 0 1 .864-.61m3.341 6.719a.23.23 0 0 0-.073.092l-.157.435v.003c0 .062.043.113.101.126l.643.24-1.111 3.126a.1.1 0 0 0-.012.05c0 .059.04.108.093.124l.772.277a.1.1 0 0 0 .043.008.13.13 0 0 0 .123-.09l1.589-4.419a.14.14 0 0 0-.082-.175l-.634-.23zM15.25 5.948a2.1 2.1 0 0 0-1.033.268.14.14 0 0 0-.054.185l.248.646a.15.15 0 0 0 .193.072l-.004.003a1.04 1.04 0 0 1 .803-.113h.004a.58.58 0 0 1 .428.719l-.003.007a1.1 1.1 0 0 1-.364.454c-.643.434-2.158 1.466-2.755 1.844v.147a.14.14 0 0 0 .082.176l2.755.996h-.002a.1.1 0 0 0 .038.005c.063 0 .117-.04.138-.097l.22-.617a.15.15 0 0 0-.083-.184l-1.212-.434c.487-.34 1.314-.886 1.681-1.199l.004-.003a1.9 1.9 0 0 0 .583-.808h.001a1.516 1.516 0 0 0-1.075-1.983l.015.004a2.1 2.1 0 0 0-.608-.088" clip-rule="evenodd"></path></svg>