<svg xmlns="http://www.w3.org/2000/svg" viewBox="0 0 24 24" fill="currentColor" class="shrink-0 block text-[#9fbed0] overflow-hidden transition-colors duration-150 !h-[24px] !w-[24px] group-hover:text-white"><path fill="currentColor" d="m21.142 5.71-7.37-4.26a3.3 3.3 0 0 0-1.68-.45 3.34 3.34 0 0 0-1.696.459l.016-.008-7.32 4.26a1.86 1.86 0 0 0-1 1.597v9.156c0 .829.45 1.553 1.119 1.94l.01.006 7.17 4.14c.483.283 1.062.45 1.68.45.62 0 1.198-.167 1.696-.459l-.015.008 7.17-4.14a2.24 2.24 0 0 0 1.17-1.949V7.31a1.86 1.86 0 0 0-.94-1.595zM6.852 16.38c-.55.07-1.09-.69-1.2-1.69s.24-1.86.79-1.92c.549-.06 1.089.69 1.2 1.69s-.231 1.86-.79 1.92m5.32-8c-1.05 0-1.9-.45-1.9-1s.85-1 1.9-1 1.9.45 1.9 1-.85.96-1.9.96zm0-3.65c-1.05 0-1.9-.44-1.9-1 0-.559.85-1 1.9-1s1.9.45 1.9 1-.85.96-1.9.96zm4.59 13.87c-.2.939-.78 1.61-1.3 1.49s-.78-1-.57-1.9.78-1.61 1.3-1.5.78.93.57 1.87zm0-5.09c-.2.939-.78 1.61-1.3 1.5s-.78-1-.57-1.91c.21-.911.78-1.611 1.3-1.491s.78.92.57 1.86zm3.66 3c-.2.939-.79 1.61-1.31 1.499s-.77-1-.57-1.91.79-1.61 1.31-1.49.77.94.57 1.88zm0-5.09c-.2.94-.79 1.61-1.31 1.5s-.77-1-.57-1.9.79-1.61 1.31-1.5.77.94.57 1.88z"></path></svg>